<svg width="50" height="50" viewBox="0 0 50 50" fill="none" xmlns="http://www.w3.org/2000/svg">
<path fill-rule="evenodd" clip-rule="evenodd" d="M0 8C0 3.58172 3.58172 0 8 0H15.7288C20.147 0 23.7288 3.58172 23.7288 8V13.218C24.8139 19.5443 29.6194 24.7129 35.9201 26.2712H41.1526C45.5709 26.2712 49.1526 29.853 49.1526 34.2712V42C49.1526 46.4183 45.5709 50 41.1526 50H33.4238C29.0056 50 25.4238 46.4183 25.4238 42V37.4877L25.1328 35.5315C24.2503 29.5985 19.7516 24.9193 13.9799 23.7257C13.8964 23.7277 13.8127 23.7288 13.7288 23.7288H8C3.58172 23.7288 0 20.147 0 15.7288V8Z" fill="#6366f1"/>
<path fill-rule="evenodd" clip-rule="evenodd" d="M11.7287 29.1606H8.00001C4.6863 29.1606 2 31.8469 2 35.1606V41.5566C2 44.8704 4.68629 47.5566 8 47.5566H13.7287C17.0424 47.5566 19.7287 44.8703 19.7287 41.5566V37.1606C19.7287 32.7423 16.1469 29.1606 11.7287 29.1606ZM21.7287 37.1606C21.7287 31.6377 17.2515 27.1606 11.7287 27.1606H8.00001C3.58173 27.1606 0 30.7423 0 35.1606V41.5566C0 45.9749 3.58172 49.5566 8 49.5566H13.7287C18.1469 49.5566 21.7287 45.9749 21.7287 41.5566V37.1606ZM37.1608 20.5045H40.8895C44.2032 20.5045 46.8895 17.8182 46.8895 14.5044V8.1084C46.8895 4.79469 44.2032 2.10841 40.8895 2.10841H35.1608C31.8471 2.10841 29.1608 4.7947 29.1608 8.10841V12.5045C29.1608 16.9227 32.7426 20.5045 37.1608 20.5045ZM27.1608 12.5045C27.1608 18.0273 31.638 22.5045 37.1608 22.5045H40.8895C45.3078 22.5045 48.8895 18.9227 48.8895 14.5044V8.1084C48.8895 3.69012 45.3078 0.108406 40.8895 0.108406H35.1608C30.7426 0.108406 27.1608 3.69012 27.1608 8.10841V12.5045Z" fill="#D4D4D4"/>
</svg>

