<svg width="264" height="90" viewBox="0 0 264 90" fill="none" xmlns="http://www.w3.org/2000/svg">
<path fill-rule="evenodd" clip-rule="evenodd" d="M16 16C16 11.5817 19.5817 8 24 8H31.7288C36.147 8 39.7288 11.5817 39.7288 16V21.218C40.8139 27.5443 45.6194 32.7129 51.9201 34.2712H57.1526C61.5709 34.2712 65.1526 37.853 65.1526 42.2712V50C65.1526 54.4183 61.5709 58 57.1526 58H49.4238C45.0056 58 41.4238 54.4183 41.4238 50V45.4877L41.1328 43.5315C40.2503 37.5985 35.7516 32.9193 29.9799 31.7257C29.8964 31.7277 29.8127 31.7288 29.7288 31.7288H24C19.5817 31.7288 16 28.147 16 23.7288V16Z" fill="#4F46E5"/>
<path fill-rule="evenodd" clip-rule="evenodd" d="M27.7287 37.1606H24C20.6863 37.1606 18 39.8469 18 43.1606V49.5566C18 52.8704 20.6863 55.5566 24 55.5566H29.7287C33.0424 55.5566 35.7287 52.8703 35.7287 49.5566V45.1606C35.7287 40.7423 32.1469 37.1606 27.7287 37.1606ZM37.7287 45.1606C37.7287 39.6377 33.2515 35.1606 27.7287 35.1606H24C19.5817 35.1606 16 38.7423 16 43.1606V49.5566C16 53.9749 19.5817 57.5566 24 57.5566H29.7287C34.1469 57.5566 37.7287 53.9749 37.7287 49.5566V45.1606ZM53.1608 28.5045H56.8895C60.2032 28.5045 62.8895 25.8182 62.8895 22.5044V16.1084C62.8895 12.7947 60.2032 10.1084 56.8895 10.1084H51.1608C47.8471 10.1084 45.1608 12.7947 45.1608 16.1084V20.5045C45.1608 24.9227 48.7426 28.5045 53.1608 28.5045ZM43.1608 20.5045C43.1608 26.0273 47.638 30.5045 53.1608 30.5045H56.8895C61.3078 30.5045 64.8895 26.9227 64.8895 22.5044V16.1084C64.8895 11.6901 61.3078 8.10841 56.8895 8.10841H51.1608C46.7426 8.10841 43.1608 11.6901 43.1608 16.1084V20.5045Z" fill="#A5B4FC"/>
<path d="M80.2083 41H74.4963V24.92H80.2083C85.1763 24.92 88.3443 27.992 88.3443 32.96C88.3443 37.928 85.1763 41 80.2083 41ZM80.2083 27.248H77.0883V38.672H80.2083C84.0483 38.672 85.5843 37.088 85.5843 32.96C85.5843 28.832 84.0483 27.248 80.2083 27.248ZM94.1293 41.24C91.9933 41.24 90.3373 40.136 90.3373 38.048C90.3373 36.08 91.7773 35.048 94.3213 34.688L98.4973 34.064V33.416C98.4973 31.64 97.6813 31.112 95.8093 31.112C93.9133 31.112 93.1693 31.712 93.1693 33.296V33.656H90.6733V33.416C90.6733 30.752 92.7613 28.832 95.9533 28.832C99.2893 28.832 100.969 30.848 100.969 33.752V41H98.5693V39.128H98.4493C97.7533 40.256 96.3853 41.24 94.1293 41.24ZM92.8573 37.856C92.8573 38.792 93.4573 39.176 94.9693 39.176C96.6493 39.176 98.4973 38.504 98.4973 36.104V35.888L94.7053 36.464C93.3373 36.656 92.8573 36.968 92.8573 37.856ZM108.877 41.24C105.397 41.24 103.573 39.872 103.573 36.968V36.92H106.069V37.352C106.069 38.648 106.645 39.128 108.925 39.128C110.845 39.128 111.205 38.696 111.205 37.808C111.205 36.848 110.629 36.56 108.877 36.248L107.029 35.936C104.893 35.552 103.549 34.592 103.549 32.432C103.549 30.272 105.325 28.832 108.445 28.832C111.253 28.832 113.365 30.224 113.365 32.936V33.152H110.893V32.864C110.893 31.76 110.509 30.968 108.373 30.968C106.477 30.968 106.021 31.472 106.021 32.384C106.021 33.296 106.453 33.56 108.133 33.896L110.149 34.28C112.453 34.736 113.653 35.768 113.653 37.736C113.653 39.944 111.901 41.24 108.877 41.24ZM118.722 41H116.13V24.92H118.722V31.064H118.818C119.37 29.984 120.642 28.832 122.802 28.832C125.922 28.832 127.242 30.872 127.242 33.488V41H124.65V34.088C124.65 31.952 123.978 31.064 121.794 31.064C119.682 31.064 118.722 31.88 118.722 34.136V41ZM136.85 41.24C132.218 41.24 130.202 39.104 130.202 36.008V35.6H132.746V35.864C132.746 37.856 133.586 38.864 136.946 38.864C139.322 38.864 140.186 38.216 140.186 36.728C140.186 35.264 139.706 34.736 137.234 34.232L134.498 33.68C131.738 33.152 130.25 31.808 130.25 29.264C130.25 26.888 132.098 24.68 136.25 24.68C140.69 24.68 142.466 27.176 142.466 30.032V30.32H139.922V30.056C139.922 28.088 139.058 27.056 136.178 27.056C133.802 27.056 132.842 27.728 132.842 29.144C132.842 30.608 133.49 31.016 135.698 31.496L138.434 32.072C141.458 32.696 142.778 34.208 142.778 36.632C142.778 39.152 140.954 41.24 136.85 41.24ZM147.71 45.152H145.142V29.072H147.494V31.04H147.614C148.166 29.648 149.534 28.832 151.598 28.832C154.958 28.832 156.806 31.256 156.806 35.048C156.806 38.816 155.006 41.24 151.766 41.24C149.63 41.24 148.31 40.256 147.782 39.152H147.71V45.152ZM147.71 36.104C147.71 38.096 148.862 39.032 150.974 39.032C153.254 39.032 154.214 37.976 154.214 35.048C154.214 32.096 153.278 31.04 150.974 31.04C148.862 31.04 147.71 31.976 147.71 33.968V36.104ZM162.693 41.24C160.557 41.24 158.901 40.136 158.901 38.048C158.901 36.08 160.341 35.048 162.885 34.688L167.061 34.064V33.416C167.061 31.64 166.245 31.112 164.373 31.112C162.477 31.112 161.733 31.712 161.733 33.296V33.656H159.237V33.416C159.237 30.752 161.325 28.832 164.517 28.832C167.853 28.832 169.533 30.848 169.533 33.752V41H167.133V39.128H167.013C166.317 40.256 164.949 41.24 162.693 41.24ZM161.421 37.856C161.421 38.792 162.021 39.176 163.533 39.176C165.213 39.176 167.061 38.504 167.061 36.104V35.888L163.269 36.464C161.901 36.656 161.421 36.968 161.421 37.856ZM177.8 41.264C174.08 41.264 171.968 38.744 171.968 35.048C171.968 31.328 174.152 28.832 177.896 28.832C181.04 28.832 183.2 30.776 183.2 33.632V33.848H180.632V33.704C180.632 31.952 179.72 31.16 177.728 31.16C175.424 31.16 174.536 32.456 174.536 35.048C174.536 37.64 175.424 38.912 177.728 38.912C179.72 38.912 180.632 38.144 180.632 36.392V36.248H183.2V36.464C183.2 39.296 181.016 41.264 177.8 41.264ZM191.053 41.24C187.117 41.24 185.269 38.744 185.269 35.024C185.269 31.328 187.477 28.832 191.029 28.832C194.245 28.832 196.501 30.752 196.501 34.016C196.501 34.64 196.429 35.288 196.357 35.648H187.693C187.789 37.832 188.581 38.936 191.077 38.936C193.069 38.936 193.837 38.264 193.837 37.184V36.992H196.405V37.208C196.405 39.656 194.269 41.24 191.053 41.24ZM190.981 31.016C188.725 31.016 187.861 32.072 187.717 33.92H194.029C194.125 31.88 193.021 31.016 190.981 31.016Z" fill="white"/>
</svg>
